<?xml version="1.0" encoding="UTF-8" standalone="no"?>
<svg
   width="32"
   height="32"
   viewBox="0 0 32 32"
   fill="none"
   version="1.1"
   id="svg135"
   sodipodi:docname="shared_button_b.svg"
   inkscape:version="1.2.1 (9c6d41e410, 2022-07-14)"
   xmlns:inkscape="http://www.inkscape.org/namespaces/inkscape"
   xmlns:sodipodi="http://sodipodi.sourceforge.net/DTD/sodipodi-0.dtd"
   xmlns="http://www.w3.org/2000/svg"
   xmlns:svg="http://www.w3.org/2000/svg">
  <defs
     id="defs139" />
  <sodipodi:namedview
     id="namedview137"
     pagecolor="#505050"
     bordercolor="#ffffff"
     borderopacity="1"
     inkscape:showpageshadow="0"
     inkscape:pageopacity="0"
     inkscape:pagecheckerboard="1"
     inkscape:deskcolor="#505050"
     showgrid="false"
     inkscape:zoom="32.09375"
     inkscape:cx="13.772152"
     inkscape:cy="16.031159"
     inkscape:window-width="1249"
     inkscape:window-height="1416"
     inkscape:window-x="2617"
     inkscape:window-y="0"
     inkscape:window-maximized="0"
     inkscape:current-layer="svg135" />
  <path
     fill-rule="evenodd"
     clip-rule="evenodd"
     d="M16 30C23.732 30 30 23.732 30 16C30 8.26801 23.732 2 16 2C8.26801 2 2 8.26801 2 16C2 23.732 8.26801 30 16 30ZM22 18.6236C22 16.9393 21.1331 15.8336 19.3993 15.3064C20.0333 14.9721 20.4926 14.5543 20.7773 14.0529C21.0619 13.5514 21.2043 12.9986 21.2043 12.3943C21.2043 11.3143 20.8225 10.4786 20.0591 9.88714C19.2957 9.29571 18.1183 9 16.5268 9H11.5V22.5H17.0702C18.5712 22.5 19.768 22.1593 20.6608 21.4779C21.5536 20.7964 22 19.845 22 18.6236ZM14.3919 14.6507V11.3529H16.2939C17.6784 11.3529 18.3706 11.8736 18.3706 12.915C18.3706 13.4679 18.1959 13.8986 17.8466 14.2071C17.4972 14.5029 16.9991 14.6507 16.3521 14.6507H14.3919ZM18.4094 19.6843C18.0471 20.0057 17.5037 20.1664 16.7791 20.1664H14.3919V16.695H16.8567C17.5425 16.695 18.0665 16.8429 18.4288 17.1386C18.7911 17.4214 18.9723 17.8457 18.9723 18.4114C18.9723 18.9386 18.7847 19.3629 18.4094 19.6843Z"
     style="fill:#ed1f24;fill-opacity:1"
     id="path133" />
</svg>
