<?xml version="1.0" encoding="UTF-8" standalone="no"?>
<svg
   xmlns:dc="http://purl.org/dc/elements/1.1/"
   xmlns:cc="http://creativecommons.org/ns#"
   xmlns:rdf="http://www.w3.org/1999/02/22-rdf-syntax-ns#"
   xmlns:svg="http://www.w3.org/2000/svg"
   xmlns="http://www.w3.org/2000/svg"
   xmlns:xlink="http://www.w3.org/1999/xlink"
   xmlns:sodipodi="http://sodipodi.sourceforge.net/DTD/sodipodi-0.dtd"
   xmlns:inkscape="http://www.inkscape.org/namespaces/inkscape"
   width="32"
   height="32"
   viewBox="0 0 32 32"
   fill="none"
   version="1.1"
   id="svg4"
   sodipodi:docname="sd_button_select.svg"
   inkscape:version="1.0.2-2 (e86c870879, 2021-01-15)">
  <metadata
     id="metadata10">
    <rdf:RDF>
      <cc:Work
         rdf:about="">
        <dc:format>image/svg+xml</dc:format>
        <dc:type
           rdf:resource="http://purl.org/dc/dcmitype/StillImage" />
        <dc:title></dc:title>
      </cc:Work>
    </rdf:RDF>
  </metadata>
  <defs
     id="defs8">
    <linearGradient
       inkscape:collect="always"
       id="linearGradient943">
      <stop
         style="stop-color:#fe00fe;stop-opacity:1;"
         offset="0"
         id="stop939" />
      <stop
         style="stop-color:#fe00fe;stop-opacity:0;"
         offset="1"
         id="stop941" />
    </linearGradient>
    <linearGradient
       inkscape:collect="always"
       xlink:href="#linearGradient943"
       id="linearGradient945"
       x1="5.7889946"
       y1="12.056889"
       x2="26.211005"
       y2="12.056889"
       gradientUnits="userSpaceOnUse" />
  </defs>
  <sodipodi:namedview
     pagecolor="#121728"
     bordercolor="#666666"
     borderopacity="1"
     objecttolerance="10"
     gridtolerance="10"
     guidetolerance="10"
     inkscape:pageopacity="0"
     inkscape:pageshadow="2"
     inkscape:window-width="1281"
     inkscape:window-height="1056"
     id="namedview6"
     showgrid="false"
     inkscape:zoom="11.136932"
     inkscape:cx="14.021638"
     inkscape:cy="5.3559331"
     inkscape:window-x="57"
     inkscape:window-y="0"
     inkscape:window-maximized="0"
     inkscape:current-layer="g970"
     inkscape:document-rotation="0"
     inkscape:pagecheckerboard="true" />
  <g
     id="g859"
     inkscape:label="working"
     style="display:none">
    <rect
       style="display:none;fill:#fefefe;fill-opacity:1;fill-rule:evenodd;stroke-width:3;stroke-linecap:round;stroke-linejoin:round;stroke-miterlimit:9;stop-color:#000000"
       id="rect898"
       width="32"
       height="14.667"
       x="0"
       y="8.6669998"
       ry="7.3334999"
       inkscape:label="bg" />
    <text
       xml:space="preserve"
       style="font-size:5.33333px;line-height:1.25;font-family:'Century Gothic';-inkscape-font-specification:'Century Gothic';letter-spacing:0px;word-spacing:0px;fill:#121728;fill-opacity:1"
       x="6.302166"
       y="13.965742"
       id="text836"
       inkscape:label="text"><tspan
         sodipodi:role="line"
         id="tspan834"
         x="6.302166"
         y="13.965742"
         style="font-style:normal;font-variant:normal;font-weight:600;font-stretch:normal;font-size:5.33333px;font-family:'Nachlieli CLM';-inkscape-font-specification:'Nachlieli CLM, Semi-Bold';font-variant-ligatures:normal;font-variant-caps:normal;font-variant-numeric:normal;font-variant-east-asian:normal;fill:#121728;fill-opacity:1">SELECT</tspan></text>
    <rect
       style="fill:#121728;fill-opacity:1;fill-rule:evenodd;stroke-width:2.50001;stroke-linecap:round;stroke-miterlimit:9;stop-color:#000000"
       id="rect854"
       width="10"
       height="6"
       x="11"
       y="15.5"
       inkscape:label="glyph" />
  </g>
  <g
     id="g970"
     inkscape:label="merged">
    <path
       id="rect962"
       style="display:inline;fill:#fefefe;fill-opacity:1;fill-rule:evenodd;stroke-width:3;stroke-linecap:round;stroke-linejoin:round;stroke-miterlimit:9;stop-color:#000000"
       inkscape:label="bg"
       d="M 7.3339844,8.6679688 C 3.2712254,8.6679688 0,11.937241 0,16 c 0,4.062759 3.2712254,7.333984 7.3339844,7.333984 H 24.666016 C 28.728775,23.333984 32,20.062759 32,16 32,11.937241 28.728775,8.6679688 24.666016,8.6679688 Z m 0.5390625,1.6718752 c 0.5137611,0 0.9106354,0.14203 1.1503906,0.40625 0.1761467,0.195718 0.2480469,0.410452 0.2480469,0.738281 H 8.5878906 c -0.024465,-0.362079 -0.2851684,-0.556641 -0.75,-0.556641 -0.3767582,0 -0.6152344,0.170341 -0.6152344,0.439454 0,0.259327 0.1502811,0.362091 0.6738282,0.464843 l 0.5585937,0.107422 c 0.6605501,0.127217 0.9433594,0.421684 0.9433594,0.984375 0,0.724159 -0.5430135,1.154297 -1.4628906,1.154297 -0.9100912,0 -1.4325259,-0.416385 -1.4765625,-1.179687 h 0.7148437 c 0.024465,0.381651 0.301699,0.591796 0.8007813,0.591796 0.4452596,0 0.7207031,-0.180044 0.7207031,-0.478515 0,-0.288685 -0.1806255,-0.426565 -0.6699219,-0.519531 l -0.5,-0.09766 C 6.801232,12.257528 6.5214844,11.988452 6.5214844,11.435547 c 0,-0.694801 0.4952939,-1.095703 1.3515625,-1.095703 z m 13.0585941,0 c 0.533333,0 0.974041,0.20042 1.248047,0.5625 0.151681,0.200611 0.215769,0.396821 0.240234,0.705078 h -0.699219 c -0.04404,-0.190826 -0.08382,-0.283 -0.162109,-0.38086 -0.137003,-0.171253 -0.347129,-0.259765 -0.601563,-0.259765 -0.577369,0 -0.925781,0.470045 -0.925781,1.257812 0,0.777982 0.332807,1.236329 0.900391,1.236329 0.455045,0 0.745025,-0.257846 0.789062,-0.712891 h 0.712891 c -0.04404,0.817125 -0.635858,1.330078 -1.521485,1.330078 -0.993271,0 -1.615234,-0.718328 -1.615234,-1.863281 0,-1.15474 0.626815,-1.875 1.634766,-1.875 z m -10.978516,0.05859 h 2.578125 v 0.611328 h -1.845703 v 0.808593 h 1.708984 v 0.611329 h -1.708984 v 0.923828 h 1.933594 v 0.611328 H 9.953125 Z m 3.267578,0 h 0.734375 v 2.955078 h 1.707031 v 0.611328 h -2.441406 z m 2.984375,0 h 2.578125 v 0.611328 h -1.84375 v 0.808593 h 1.707031 v 0.611329 h -1.707031 v 0.923828 h 1.933594 v 0.611328 h -2.667969 z m 6.478516,0 h 2.857422 v 0.611328 H 24.5 v 2.955078 H 23.765625 V 11.009766 H 22.683594 Z M 11,15.5 h 10 v 6 H 11 Z" />
  </g>
</svg>
