<?xml version="1.0" encoding="UTF-8" standalone="no"?>
<svg
   xmlns:dc="http://purl.org/dc/elements/1.1/"
   xmlns:cc="http://creativecommons.org/ns#"
   xmlns:rdf="http://www.w3.org/1999/02/22-rdf-syntax-ns#"
   xmlns:svg="http://www.w3.org/2000/svg"
   xmlns="http://www.w3.org/2000/svg"
   xmlns:xlink="http://www.w3.org/1999/xlink"
   xmlns:sodipodi="http://sodipodi.sourceforge.net/DTD/sodipodi-0.dtd"
   xmlns:inkscape="http://www.inkscape.org/namespaces/inkscape"
   width="32"
   height="32"
   viewBox="0 0 32 32"
   fill="none"
   version="1.1"
   id="svg4"
   sodipodi:docname="sd_button_start.svg"
   inkscape:version="1.0.2-2 (e86c870879, 2021-01-15)">
  <metadata
     id="metadata10">
    <rdf:RDF>
      <cc:Work
         rdf:about="">
        <dc:format>image/svg+xml</dc:format>
        <dc:type
           rdf:resource="http://purl.org/dc/dcmitype/StillImage" />
        <dc:title></dc:title>
      </cc:Work>
    </rdf:RDF>
  </metadata>
  <defs
     id="defs8">
    <linearGradient
       inkscape:collect="always"
       id="linearGradient943">
      <stop
         style="stop-color:#fe00fe;stop-opacity:1;"
         offset="0"
         id="stop939" />
      <stop
         style="stop-color:#fe00fe;stop-opacity:0;"
         offset="1"
         id="stop941" />
    </linearGradient>
    <linearGradient
       inkscape:collect="always"
       xlink:href="#linearGradient943"
       id="linearGradient945"
       x1="5.7889946"
       y1="12.056889"
       x2="26.211005"
       y2="12.056889"
       gradientUnits="userSpaceOnUse" />
  </defs>
  <sodipodi:namedview
     pagecolor="#121728"
     bordercolor="#666666"
     borderopacity="1"
     objecttolerance="10"
     gridtolerance="10"
     guidetolerance="10"
     inkscape:pageopacity="0"
     inkscape:pageshadow="2"
     inkscape:window-width="1281"
     inkscape:window-height="1056"
     id="namedview6"
     showgrid="false"
     inkscape:zoom="11.136932"
     inkscape:cx="19.067078"
     inkscape:cy="3.6732575"
     inkscape:window-x="57"
     inkscape:window-y="0"
     inkscape:window-maximized="0"
     inkscape:current-layer="g999"
     inkscape:document-rotation="0"
     inkscape:pagecheckerboard="true" />
  <g
     id="g859"
     inkscape:label="working"
     style="display:none">
    <rect
       style="display:inline;fill:#fefefe;fill-opacity:1;fill-rule:evenodd;stroke-width:3;stroke-linecap:round;stroke-linejoin:round;stroke-miterlimit:9;stop-color:#000000"
       id="rect898"
       width="32"
       height="14.667"
       x="0"
       y="8.6669998"
       ry="7.3334999"
       inkscape:label="bg" />
    <text
       xml:space="preserve"
       style="font-size:5.33333px;line-height:1.25;font-family:'Century Gothic';-inkscape-font-specification:'Century Gothic';letter-spacing:0px;word-spacing:0px;fill:#121728;fill-opacity:1"
       x="8.0244856"
       y="13.965742"
       id="text836"
       inkscape:label="text"><tspan
         sodipodi:role="line"
         id="tspan834"
         x="8.0244856"
         y="13.965742"
         style="font-style:normal;font-variant:normal;font-weight:600;font-stretch:normal;font-size:5.33333px;font-family:'Nachlieli CLM';-inkscape-font-specification:'Nachlieli CLM, Semi-Bold';font-variant-ligatures:normal;font-variant-caps:normal;font-variant-numeric:normal;font-variant-east-asian:normal;fill:#121728;fill-opacity:1">START</tspan></text>
    <path
       id="rect854"
       style="fill:#121728;fill-opacity:1;fill-rule:evenodd;stroke-width:2.50001;stroke-linecap:round;stroke-miterlimit:9;stop-color:#000000"
       inkscape:label="glyph"
       d="M 10.936508,15.34127 23,18.5 10.936508,21.65873 Z"
       sodipodi:nodetypes="cccc" />
  </g>
  <g
     id="g999"
     inkscape:label="working"
     style="display:inline">
    <path
       id="rect991"
       style="display:inline;fill:#fefefe;fill-opacity:1;fill-rule:evenodd;stroke-width:3;stroke-linecap:round;stroke-linejoin:round;stroke-miterlimit:9;stop-color:#000000"
       inkscape:label="bg"
       d="M 7.3339844,8.6679688 C 3.2712254,8.6679688 0,11.937241 0,16 c 0,4.062759 3.2712254,7.333984 7.3339844,7.333984 H 24.666016 C 28.728775,23.333984 32,20.062759 32,16 32,11.937241 28.728775,8.6679688 24.666016,8.6679688 Z m 2.2617187,1.6718752 c 0.5137609,0 0.9086819,0.14203 1.1484379,0.40625 0.176146,0.195718 0.25,0.410452 0.25,0.738281 h -0.685547 c -0.02446,-0.362079 -0.283216,-0.556641 -0.7480471,-0.556641 -0.3767582,0 -0.6152344,0.170341 -0.6152344,0.439454 0,0.259327 0.150281,0.362091 0.6738281,0.464843 l 0.5585934,0.107422 c 0.66055,0.127217 0.94336,0.421684 0.94336,0.984375 0,0.724159 -0.543014,1.154297 -1.4628909,1.154297 -0.9100912,0 -1.4325258,-0.416385 -1.4765625,-1.179687 h 0.7128906 c 0.024465,0.381651 0.3036522,0.591796 0.8027344,0.591796 0.4452594,0 0.7207034,-0.180044 0.7207034,-0.478515 0,-0.288685 -0.182579,-0.426565 -0.6718752,-0.519531 L 9.2480469,12.394531 C 8.5238883,12.257528 8.2441406,11.988452 8.2441406,11.435547 c 0,-0.694801 0.4952939,-1.095703 1.3515625,-1.095703 z m 1.7363279,0.05859 h 2.857422 v 0.611328 h -1.042969 v 2.955078 h -0.732422 v -2.955078 h -1.082031 z m 3.890625,0 h 0.8125 l 1.232422,3.566406 h -0.753906 l -0.234375,-0.71875 h -1.335938 l -0.240234,0.71875 h -0.748047 z m 2.529297,0 h 1.912109 c 0.303364,-1e-6 0.529939,0.07778 0.691407,0.24414 0.171253,0.176147 0.267578,0.436911 0.267578,0.720703 0,0.435474 -0.20034,0.724285 -0.601563,0.88086 0.455046,0.195718 0.474569,0.244887 0.494141,1.296875 0,0.156574 0.04371,0.22936 0.15625,0.292968 v 0.13086 h -0.787109 c -0.09297,-0.171254 -0.111328,-0.278607 -0.111328,-0.611328 0,-0.05382 -9.87e-4,-0.141409 0.0039,-0.234375 0.0049,-0.06361 0.0059,-0.113221 0.0059,-0.142579 0,-0.29847 -0.137035,-0.425781 -0.455078,-0.425781 h -0.841797 v 1.414063 h -0.734375 z m 3.208985,0 h 2.857421 v 0.611328 h -1.041015 v 2.955078 h -0.734375 v -2.955078 h -1.082031 z m -2.47461,0.611328 v 0.929687 h 0.884766 c 0.210397,0 0.308431,-0.0233 0.386718,-0.0918 0.08318,-0.07339 0.132813,-0.211559 0.132813,-0.382812 0,-0.166361 -0.04474,-0.287934 -0.132813,-0.361328 -0.08807,-0.0734 -0.176321,-0.09375 -0.386718,-0.09375 z m -2.873047,0.230468 -0.464843,1.394532 h 0.929687 z M 10.935547,15.341797 23,18.5 10.935547,21.658203 Z" />
  </g>
</svg>
