<?xml version="1.0" encoding="UTF-8" standalone="no"?>
<svg
   xmlns:dc="http://purl.org/dc/elements/1.1/"
   xmlns:cc="http://creativecommons.org/ns#"
   xmlns:rdf="http://www.w3.org/1999/02/22-rdf-syntax-ns#"
   xmlns:svg="http://www.w3.org/2000/svg"
   xmlns="http://www.w3.org/2000/svg"
   xmlns:sodipodi="http://sodipodi.sourceforge.net/DTD/sodipodi-0.dtd"
   xmlns:inkscape="http://www.inkscape.org/namespaces/inkscape"
   width="32"
   height="32"
   viewBox="0 0 32 32"
   fill="none"
   version="1.1"
   id="svg4"
   sodipodi:docname="shared_dpad_up.svg"
   inkscape:version="1.0.2-2 (e86c870879, 2021-01-15)">
  <metadata
     id="metadata10">
    <rdf:RDF>
      <cc:Work
         rdf:about="">
        <dc:format>image/svg+xml</dc:format>
        <dc:type
           rdf:resource="http://purl.org/dc/dcmitype/StillImage" />
        <dc:title></dc:title>
      </cc:Work>
    </rdf:RDF>
  </metadata>
  <defs
     id="defs8" />
  <sodipodi:namedview
     pagecolor="#190736"
     bordercolor="#666666"
     borderopacity="1"
     objecttolerance="10"
     gridtolerance="10"
     guidetolerance="10"
     inkscape:pageopacity="0"
     inkscape:pageshadow="2"
     inkscape:window-width="1347"
     inkscape:window-height="1056"
     id="namedview6"
     showgrid="false"
     inkscape:pagecheckerboard="true"
     inkscape:zoom="13.890625"
     inkscape:cx="15.600894"
     inkscape:cy="13.896403"
     inkscape:window-x="57"
     inkscape:window-y="0"
     inkscape:window-maximized="0"
     inkscape:current-layer="svg4" />
  <path
     style="opacity:0.499792;fill:#ffffff;fill-opacity:1"
     d="M 21.333984,23.455078 V 31 c 0,0.5523 -0.4477,1 -1,1 h -8.667968 c -0.5523,0 -1,-0.4477 -1,-1 V 23.455078 L 16,18.121094 Z"
     id="path861" />
  <path
     style="opacity:0.499792;fill:#ffffff;fill-opacity:1"
     d="m 31,10.666016 c 0.5523,0 1,0.4477 1,1 v 8.667968 c 0,0.5523 -0.4477,1 -1,1 H 23.455078 L 18.121094,16 23.455078,10.666016 Z"
     id="path859" />
  <path
     style="opacity:0.499792;fill:#ffffff;fill-opacity:1"
     d="M 8.5449219,10.666016 13.878906,16 8.5449219,21.333984 H 1 c -0.552285,0 -1,-0.4477 -1,-1 v -8.667968 c 0,-0.5523 0.447715,-1 1,-1 z"
     id="path857" />
  <path
     style="fill:#ffffff;fill-opacity:1"
     d="m 20.333984,0 c 0.5523,0 1,0.447715 1,1 V 8.5449219 L 16,13.878906 10.666016,8.5449219 V 1 c 0,-0.552285 0.4477,-1 1,-1 z"
     id="path2" />
</svg>
