<?xml version="1.0" encoding="UTF-8" standalone="no"?>
<svg
   xmlns:dc="http://purl.org/dc/elements/1.1/"
   xmlns:cc="http://creativecommons.org/ns#"
   xmlns:rdf="http://www.w3.org/1999/02/22-rdf-syntax-ns#"
   xmlns:svg="http://www.w3.org/2000/svg"
   xmlns="http://www.w3.org/2000/svg"
   xmlns:sodipodi="http://sodipodi.sourceforge.net/DTD/sodipodi-0.dtd"
   xmlns:inkscape="http://www.inkscape.org/namespaces/inkscape"
   width="32"
   height="32"
   viewBox="0 0 32 32"
   fill="none"
   version="1.1"
   id="svg4"
   sodipodi:docname="sd_button_create.svg"
   inkscape:version="1.0.2-2 (e86c870879, 2021-01-15)">
  <metadata
     id="metadata10">
    <rdf:RDF>
      <cc:Work
         rdf:about="">
        <dc:format>image/svg+xml</dc:format>
        <dc:type
           rdf:resource="http://purl.org/dc/dcmitype/StillImage" />
        <dc:title></dc:title>
      </cc:Work>
    </rdf:RDF>
  </metadata>
  <defs
     id="defs8" />
  <sodipodi:namedview
     pagecolor="#08391e"
     bordercolor="#666666"
     borderopacity="1"
     objecttolerance="10"
     gridtolerance="10"
     guidetolerance="10"
     inkscape:pageopacity="1"
     inkscape:pageshadow="2"
     inkscape:window-width="1533"
     inkscape:window-height="1051"
     id="namedview6"
     showgrid="false"
     inkscape:pagecheckerboard="true"
     inkscape:zoom="19.64431"
     inkscape:cx="15.228223"
     inkscape:cy="16.350178"
     inkscape:window-x="62"
     inkscape:window-y="0"
     inkscape:window-maximized="0"
     inkscape:current-layer="g847"
     inkscape:document-rotation="0" />
  <g
     id="g837"
     inkscape:label="working"
     style="display:none">
    <path
       id="path2"
       style="fill:#ffffff;fill-opacity:1"
       d="M 7.3339844,8.6660156 C 3.2838944,8.6660156 0,11.9499 0,16 c 0,4.05 3.2839044,7.333984 7.3339844,7.333984 H 24.666016 C 28.716116,23.333984 32,20.05 32,16 32,11.9499 28.716116,8.6660156 24.666016,8.6660156 Z"
       inkscape:label="bg" />
    <rect
       style="fill:#121728;fill-rule:evenodd;stroke-width:2.5;stroke-linecap:round;stroke-miterlimit:9;stop-color:#000000"
       id="rect870"
       width="7"
       height="1.7111"
       x="-24.029266"
       y="-0.40649551"
       transform="rotate(-120)"
       inkscape:label="right" />
    <rect
       style="fill:#121728;fill-rule:evenodd;stroke-width:2.5;stroke-linecap:round;stroke-miterlimit:9;stop-color:#000000"
       id="rect835"
       width="9.3333998"
       height="1.7111"
       x="-20.6667"
       y="15.14445"
       transform="rotate(-90)"
       inkscape:label="mid" />
    <rect
       style="fill:#121728;fill-rule:evenodd;stroke-width:2.5;stroke-linecap:round;stroke-miterlimit:9;stop-color:#000000"
       id="rect868"
       width="7"
       height="1.7111"
       x="-8.0292568"
       y="26.408199"
       transform="rotate(-60)"
       inkscape:label="left" />
  </g>
  <g
     id="g847"
     inkscape:label="merged">
    <path
       id="path839"
       style="fill:#ffffff;fill-opacity:1"
       inkscape:label="bg"
       d="M 7.3339844,8.6660156 C 3.2838944,8.6660156 0,11.9499 0,16 c 0,4.05 3.2839044,7.333984 7.3339844,7.333984 H 24.666016 C 28.716116,23.333984 32,20.05 32,16 32,11.9499 28.716116,8.6660156 24.666016,8.6660156 Z m 7.8105466,2.6679684 h 1.710938 v 9.332032 h -1.710938 z m -5.4999998,2.761719 3.4999998,6.0625 -1.482422,0.855469 -3.4999996,-6.0625 z m 12.7109378,0 1.482422,0.855469 -3.5,6.0625 -1.482422,-0.855469 z" />
  </g>
</svg>
