<?xml version="1.0" encoding="utf-8"?>
<svg width="32" height="32" viewBox="0 0 32 32" fill="none" version="1.1" id="svg4" xmlns="http://www.w3.org/2000/svg">
  <circle style="display:none;fill:#7cb2e8;fill-opacity:1;fill-rule:evenodd;stroke:none;stroke-width:2.5;stroke-linecap:round;stroke-linejoin:miter;stroke-miterlimit:9;stroke-dasharray:none;stroke-opacity:1;stop-color:#000000" id="circle1303" cx="16" cy="16" r="14"/>
  <path id="circle1292" style="display: inline; fill-opacity: 1; fill-rule: evenodd; stroke: none; stroke-width: 2.5; stroke-linecap: round; stroke-linejoin: miter; stroke-miterlimit: 9; stroke-dasharray: none; stroke-opacity: 1; stop-color: rgb(0, 0, 0); fill: rgb(255, 255, 255);" d="M 16 2 A 14 14 0 0 0 2 16 A 14 14 0 0 0 16 30 A 14 14 0 0 0 30 16 A 14 14 0 0 0 16 2 z M 7.2714844 7.2714844 L 23.478516 7.2714844 L 24.728516 7.2714844 L 24.728516 24.728516 L 7.2714844 24.728516 L 7.2714844 7.2714844 z M 9.7714844 9.7714844 L 9.7714844 22.228516 L 22.228516 22.228516 L 22.228516 9.7714844 L 9.7714844 9.7714844 z "/>
  <circle style="display:none;fill:#ff6666;fill-opacity:1;fill-rule:evenodd;stroke:none;stroke-width:2.5;stroke-linecap:round;stroke-linejoin:miter;stroke-miterlimit:9;stroke-dasharray:none;stroke-opacity:1;stop-color:#000000" id="circle1290" cx="16" cy="16" r="14"/>
  <circle style="display:none;fill:#40e2a0;fill-opacity:1;fill-rule:evenodd;stroke:none;stroke-width:2.5;stroke-linecap:round;stroke-linejoin:miter;stroke-miterlimit:9;stroke-dasharray:none;stroke-opacity:1;stop-color:#000000" id="circle1288" cx="16" cy="16" r="14"/>
  <g id="g1301" style="display:none">
    <circle style="display:none;fill:#7cb2e8;fill-opacity:1;fill-rule:evenodd;stroke:none;stroke-width:2.5;stroke-linecap:round;stroke-linejoin:miter;stroke-miterlimit:9;stroke-dasharray:none;stroke-opacity:1;stop-color:#000000" id="path1286" cx="16" cy="16" r="14"/>
    <path style="display:none;fill:none;fill-rule:evenodd;stroke:#000000;stroke-width:2.5;stroke-linecap:round;stroke-linejoin:miter;stroke-miterlimit:9;stroke-dasharray:none;stroke-opacity:1;stop-color:#000000" id="path847" d="m 16.003907,5.3916168 9.159636,15.8649562 -18.3192735,-1e-6 z"/>
    <path style="display:none;fill:none;fill-rule:evenodd;stroke:#000000;stroke-width:2.5;stroke-linecap:round;stroke-linejoin:miter;stroke-miterlimit:9;stroke-dasharray:none;stroke-opacity:1;stop-color:#000000" id="path1275" d="M 16.003907,5.3916168 26.580544,15.968254 16.003906,26.544891 5.427269,15.968254 Z" transform="rotate(45,15.963632,15.979411)"/>
    <g id="g1280" style="display:none">
      <path style="display:inline;fill:#000000;fill-opacity:1;fill-rule:evenodd;stroke:none;stroke-width:4.81961;stroke-linecap:round;stroke-linejoin:miter;stroke-miterlimit:9;stroke-dasharray:none;stroke-opacity:1;stop-color:#000000" id="path1277" d="M 16.003907,5.3916168 26.580544,15.968254 16.003906,26.544891 5.427269,15.968254 Z" transform="matrix(0.88848095,-0.72134211,-0.72134211,0.88848095,13.300764,13.353539)"/>
      <path style="display:inline;fill:#000000;fill-opacity:1;fill-rule:evenodd;stroke:none;stroke-width:4.81961;stroke-linecap:round;stroke-linejoin:miter;stroke-miterlimit:9;stroke-dasharray:none;stroke-opacity:1;stop-color:#000000" id="path1282" d="M 16.003907,5.3916168 26.580544,15.968254 16.003906,26.544891 5.427269,15.968254 Z" transform="matrix(0.72134211,0.88848095,-0.88848095,-0.72134211,18.642533,13.301834)"/>
    </g>
    <circle style="display:none;fill:none;fill-opacity:1;fill-rule:evenodd;stroke:#000000;stroke-width:2.5;stroke-linecap:round;stroke-linejoin:miter;stroke-miterlimit:9;stroke-dasharray:none;stroke-opacity:1;stop-color:#000000" id="path1284" cx="16.003906" cy="15.968254" r="10.324549"/>
  </g>
</svg>