<?xml version="1.0" encoding="UTF-8" standalone="no"?>
<svg
   xmlns:dc="http://purl.org/dc/elements/1.1/"
   xmlns:cc="http://creativecommons.org/ns#"
   xmlns:rdf="http://www.w3.org/1999/02/22-rdf-syntax-ns#"
   xmlns:svg="http://www.w3.org/2000/svg"
   xmlns="http://www.w3.org/2000/svg"
   xmlns:sodipodi="http://sodipodi.sourceforge.net/DTD/sodipodi-0.dtd"
   xmlns:inkscape="http://www.inkscape.org/namespaces/inkscape"
   width="32"
   height="32"
   viewBox="0 0 32 32"
   fill="none"
   version="1.1"
   id="svg4"
   sodipodi:docname="sd_button_minus.svg"
   inkscape:version="1.0.2-2 (e86c870879, 2021-01-15)">
  <metadata
     id="metadata10">
    <rdf:RDF>
      <cc:Work
         rdf:about="">
        <dc:format>image/svg+xml</dc:format>
        <dc:type
           rdf:resource="http://purl.org/dc/dcmitype/StillImage" />
        <dc:title></dc:title>
      </cc:Work>
    </rdf:RDF>
  </metadata>
  <defs
     id="defs8" />
  <sodipodi:namedview
     pagecolor="#121728"
     bordercolor="#666666"
     borderopacity="1"
     objecttolerance="10"
     gridtolerance="10"
     guidetolerance="10"
     inkscape:pageopacity="0"
     inkscape:pageshadow="2"
     inkscape:window-width="1233"
     inkscape:window-height="1056"
     id="namedview6"
     showgrid="false"
     inkscape:zoom="15.750001"
     inkscape:cx="16.95523"
     inkscape:cy="16.341037"
     inkscape:window-x="57"
     inkscape:window-y="0"
     inkscape:window-maximized="0"
     inkscape:current-layer="g857"
     inkscape:document-rotation="0" />
  <g
     id="g857"
     inkscape:label="working"
     style="display:inline">
    <path
       fill-rule="evenodd"
       clip-rule="evenodd"
       d="M 7.33333,8.66663 C 3.28324,8.66663 0,11.9499 0,16 c 0,4.05 3.28325,7.3333 7.33333,7.3333 H 24.6667 C 28.7168,23.3333 32,20.05 32,16 32,11.9499 28.7168,8.66663 24.6667,8.66663 Z M 20.6667,11.7222 h -9.3334 v 1.7111 h 9.3334 z m -9.3334,6.8445 h 9.3334 v 1.7111 h -9.3334 z m 9.3334,-3.4223 h -9.3334 v 1.7111 h 9.3334 z"
       fill="#ffffff"
       id="path2"
       inkscape:label="vanilla"
       style="display:none" />
    <path
       id="rect837"
       style="fill:#fefefe;fill-opacity:1;fill-rule:evenodd;stroke-width:3;stroke-linecap:round;stroke-linejoin:round;stroke-miterlimit:9;stop-color:#000000"
       inkscape:label="bg"
       d="M 7.3339844,8.6679688 C 3.2712254,8.6679688 0,11.937241 0,16 c 0,4.062759 3.2712254,7.333984 7.3339844,7.333984 H 24.666016 C 28.728775,23.333984 32,20.062759 32,16 32,11.937241 28.728775,8.6679688 24.666016,8.6679688 Z m 3.0742186,5.7167972 h 11.183594 v 3.230468 H 10.408203 Z" />
  </g>
  <path
     id="rect835"
     style="display:none;fill:#fefefe;fill-opacity:1;fill-rule:evenodd;stroke-width:3;stroke-linecap:round;stroke-linejoin:round;stroke-miterlimit:9;stop-color:#000000"
     inkscape:label="bg"
     d="M 7.3339844,8.6679688 C 3.2712254,8.6679688 0,11.937241 0,16 c 0,4.062759 3.2712254,7.333984 7.3339844,7.333984 H 24.666016 C 28.728775,23.333984 32,20.062759 32,16 32,11.937241 28.728775,8.6679688 24.666016,8.6679688 Z M 5.7265625,12.134766 c 0.3854179,0 0.716362,0.07292 0.9941406,0.21875 0.2777787,0.145833 0.490885,0.359374 0.6367188,0.640625 0.1458338,0.277778 0.21875,0.613497 0.21875,1.005859 v 0.427734 l -1.2871094,0.01563 v -0.433593 c 0,-0.194445 -0.049696,-0.345486 -0.1503906,-0.453125 -0.097223,-0.111112 -0.2350255,-0.166016 -0.4121094,-0.166016 -0.1875006,0 -0.333333,0.0497 -0.4375,0.150391 -0.1006948,0.09722 -0.1503906,0.232638 -0.1503906,0.40625 v 0.505859 c 0,0.142362 0.036458,0.264974 0.109375,0.369141 0.076389,0.104167 0.1701385,0.192708 0.28125,0.265625 0.1145837,0.06944 0.2712667,0.155164 0.4726562,0.255859 0.038195,0.01736 0.07704,0.03581 0.1152344,0.05664 l 0.125,0.0625 c 0.00694,0.0035 0.012153,0.0082 0.015625,0.01172 l 0.021484,0.0098 c 0.2881953,0.152778 0.5201817,0.29579 0.6972656,0.427734 0.1770839,0.128473 0.3281246,0.310764 0.453125,0.546875 0.1250004,0.236112 0.1875,0.538194 0.1875,0.90625 v 0.628907 c 0,0.392362 -0.075303,0.730467 -0.2246094,1.011718 -0.1458338,0.277779 -0.3593741,0.491319 -0.640625,0.640625 -0.2812509,0.145834 -0.6174032,0.21875 -1.0097656,0.21875 -0.3958346,0 -0.7367613,-0.07292 -1.0214844,-0.21875 C 4.43598,19.497178 4.2172314,19.283638 4.0644531,19.005859 3.9151471,18.724608 3.8417969,18.386503 3.8417969,17.994141 v -0.40625 l 1.2851562,-0.0098 v 0.40625 c 0,0.190973 0.05447,0.342014 0.1621094,0.453125 0.1076392,0.107639 0.2562928,0.162109 0.4472656,0.162109 0.1875006,0 0.332899,-0.05447 0.4335938,-0.162109 0.104167,-0.107639 0.15625,-0.255859 0.15625,-0.443359 V 17.33395 c 0,-0.138889 -0.041232,-0.25868 -0.1210938,-0.359375 -0.076389,-0.104167 -0.1757808,-0.192708 -0.3007812,-0.265625 -0.1215282,-0.07639 -0.2881938,-0.167317 -0.5,-0.271484 l -0.042969,-0.02148 c -0.010417,-0.0069 -0.021267,-0.01259 -0.035156,-0.01953 l -0.068359,-0.03125 C 4.9765616,16.222873 4.7369798,16.074653 4.5390625,15.921875 4.3411452,15.765625 4.1768667,15.560114 4.0449219,15.306641 3.912977,15.053168 3.8457031,14.74067 3.8457031,14.369141 v -0.390625 c 0,-0.385418 0.072916,-0.713975 0.21875,-0.988282 0.1493061,-0.277778 0.3652335,-0.490885 0.6464844,-0.636718 0.2812509,-0.145834 0.6197904,-0.21875 1.015625,-0.21875 z m 16.5214845,0 c 0.381946,0 0.707681,0.07769 0.978515,0.230468 0.274307,0.149306 0.482639,0.368489 0.625,0.660157 0.142362,0.288195 0.212891,0.636717 0.212891,1.042968 v 0.609375 h -1.306641 v -0.609375 c 0,-0.128472 -0.01845,-0.240234 -0.05664,-0.333984 -0.03819,-0.09375 -0.09787,-0.164279 -0.177734,-0.212891 -0.07639,-0.05208 -0.167752,-0.07813 -0.275391,-0.07813 -0.104167,0 -0.195095,0.02366 -0.271485,0.07227 -0.07639,0.04861 -0.136067,0.11914 -0.177734,0.212891 -0.03819,0.09375 -0.05664,0.205511 -0.05664,0.333984 v 3.875 c 0,0.128473 0.01845,0.240234 0.05664,0.333984 0.04167,0.09028 0.101345,0.15842 0.177734,0.207032 0.07639,0.04861 0.167318,0.07422 0.271485,0.07422 0.111111,0 0.204861,-0.02561 0.28125,-0.07422 0.07639,-0.04861 0.13368,-0.116754 0.171875,-0.207032 0.03819,-0.09375 0.05664,-0.207899 0.05664,-0.339843 v -0.609375 h 1.306641 v 0.609375 c 0,0.406251 -0.07053,0.755207 -0.212891,1.046875 -0.142361,0.288195 -0.350693,0.509331 -0.625,0.662109 -0.270834,0.149306 -0.596569,0.224609 -0.978515,0.224609 -0.381946,0 -0.709635,-0.0753 -0.980469,-0.224609 -0.270834,-0.152778 -0.479166,-0.373914 -0.625,-0.662109 -0.142361,-0.288196 -0.21289,-0.634765 -0.21289,-1.041016 v -3.875 c 0,-0.406251 0.07053,-0.75282 0.21289,-1.041016 0.145834,-0.288195 0.354166,-0.506944 0.625,-0.65625 0.270834,-0.152778 0.598523,-0.230468 0.980469,-0.230467 z m -13.8085939,0.07813 h 1.2929688 2.0722661 v 1.261718 H 9.7324219 v 1.921875 h 1.8125001 v 1.253907 H 9.7324219 v 1.875 h 2.0722661 v 1.261718 H 9.7324219 8.4394531 Z m 4.0312499,0 h 1.292969 v 6.333984 h 1.96875 v 1.240234 h -1.96875 -1.292969 z m 3.927735,0 h 1.291015 2.074219 v 1.261718 h -2.074219 v 1.921875 h 1.8125 v 1.253907 h -1.8125 v 1.875 h 2.074219 v 1.261718 h -2.074219 -1.291015 z m 7.96875,0 h 3.791015 v 1.240234 h -1.25 v 6.333984 H 25.617188 V 13.45313 h -1.25 z" />
</svg>
